<svg xmlns="http://www.w3.org/2000/svg" width="24" height="24" viewBox="0 0 24 24">
<path d="M 0.77,0 L 10.06,0 C 10.06,0 10.28,0.1 10.58,0.1 L 19.35,8.25
 C 19.35,8.25 19.41,8.75 19.61,9.03 L 19.61,23.22 C 19.61,23.22 19.3,24.13 18.58,24
 L 0.77,24 C 0.77,24 0.35,23.85 0,23.22 L 0,0.77 C 0,0.77 0.35,0.15 0.77,0
 M 2,2 L 2,22 L 17.61,22 L 17.61,9.7 L 10,2 z
 M 13.93,0 L 18.83,0 C 18.83,0 19.3,-0.1 19.61,0.77 L 19.61,5.41
 C 19.61,5.41 19.3,6 18.58,5.93 L 13.67,1.29 C 13.67,1.29 13.4,0.5 13.93,0 z"/>
<text x="3" y="15" font-size="7">PDF</text>
</svg>
